<?xml version="1.0" standalone="no"?>
<!DOCTYPE svg PUBLIC "-//W3C//DTD SVG 20010904//EN"
 "http://www.w3.org/TR/2001/REC-SVG-20010904/DTD/svg10.dtd">
<svg version="1.0" xmlns="http://www.w3.org/2000/svg"
 width="450.000000pt" height="98.000000pt" viewBox="0 0 450.000000 98.000000"
 preserveAspectRatio="xMidYMid meet">

<g transform="translate(0.000000,98.000000) scale(0.100000,-0.100000)"
fill="#000000" stroke="none">
<path d="M2772 638 c-7 -7 -12 -25 -12 -40 0 -21 6 -31 26 -38 36 -14 64 3 64
38 0 33 -16 52 -45 52 -12 0 -26 -5 -33 -12z"/>
<path d="M459 593 c-13 -16 -12 -17 4 -4 16 13 21 21 13 21 -2 0 -10 -8 -17
-17z"/>
<path d="M3570 505 c0 -69 3 -85 15 -85 10 0 15 11 15 35 0 33 2 35 35 35 33
0 35 -2 35 -35 0 -24 5 -35 15 -35 17 0 16 -2 16 75 0 91 0 95 -16 95 -11 0
-15 -11 -15 -36 0 -34 -1 -35 -32 -32 -29 3 -33 7 -36 36 -2 20 -9 32 -18 32
-11 0 -14 -18 -14 -85z"/>
<path d="M3740 505 c0 -78 2 -85 20 -85 16 0 20 7 20 36 0 28 4 35 17 32 9 -2
21 -18 25 -36 6 -22 15 -32 28 -32 19 0 18 16 -5 71 -3 10 -2 20 4 24 18 11
12 54 -8 65 -11 5 -38 10 -60 10 l-41 0 0 -85z m76 50 c19 -15 19 -15 0 -30
-29 -22 -36 -19 -36 15 0 34 7 37 36 15z"/>
<path d="M3896 529 c-9 -92 -8 -109 9 -109 11 0 15 11 16 38 2 88 12 98 28 27
17 -74 42 -76 60 -5 18 71 31 71 31 1 0 -48 3 -61 15 -61 13 0 15 14 13 83 -3
80 -4 82 -28 82 -21 0 -27 -8 -41 -55 -18 -57 -20 -56 -39 18 -9 34 -15 42
-34 42 -21 0 -24 -6 -30 -61z"/>
<path d="M978 559 c-2 -7 -2 -25 0 -41 4 -27 7 -29 41 -26 34 3 36 5 36 38 0
33 -2 35 -36 38 -23 2 -39 -2 -41 -9z m67 -29 c0 -20 -6 -26 -27 -28 -25 -3
-28 0 -28 28 0 28 3 31 28 28 21 -2 27 -8 27 -28z"/>
<path d="M1091 528 c1 -24 4 -33 6 -21 2 12 12 24 21 26 15 4 15 5 0 6 -31 2
-20 20 15 24 31 4 31 4 -5 5 l-38 2 1 -42z"/>
<path d="M1183 563 c12 -3 17 -15 18 -41 l2 -37 6 34 c4 21 14 37 26 42 14 5
7 7 -25 7 -25 0 -37 -2 -27 -5z"/>
<path d="M1441 528 c1 -24 3 -35 6 -25 6 21 26 22 43 2 7 -8 17 -15 22 -15 7
0 6 5 -1 13 -8 10 -7 17 1 25 20 20 1 42 -37 42 -35 0 -35 0 -34 -42z m62 17
c-3 -13 -53 -20 -53 -7 0 15 13 23 35 20 11 -2 19 -7 18 -13z"/>
<path d="M1540 530 c0 -40 0 -40 38 -39 35 1 36 2 8 8 -33 7 -37 21 -9 32 15
6 14 8 -6 8 -30 1 -17 17 19 24 18 3 15 5 -12 6 -38 1 -38 1 -38 -39z"/>
<path d="M1650 538 c-11 -18 -20 -37 -19 -43 0 -5 3 -4 6 3 6 15 55 16 71 0 7
-7 12 -9 12 -6 0 9 -41 78 -46 78 -2 0 -13 -15 -24 -32z m38 -6 c2 -7 -3 -12
-12 -12 -9 0 -16 7 -16 16 0 17 22 14 28 -4z"/>
<path d="M1738 543 c-2 -18 -1 -38 4 -45 5 -8 8 -2 8 17 1 28 1 29 15 11 14
-19 16 -19 34 -2 19 17 20 17 24 -11 3 -19 4 -13 5 17 l1 45 -22 -28 -23 -27
-20 27 -21 28 -5 -32z"/>
<path d="M527 546 c-4 -10 -1 -13 8 -9 8 3 12 9 9 14 -7 12 -11 11 -17 -5z"/>
<path d="M2620 531 c-23 -43 -4 -98 43 -122 15 -8 11 -2 -10 18 -34 32 -42 67
-23 104 6 10 8 19 6 19 -3 0 -10 -9 -16 -19z"/>
<path d="M2762 524 c-19 -13 -22 -25 -22 -76 l0 -60 -27 6 c-22 4 -24 4 -8 -4
11 -5 33 -11 48 -15 16 -3 32 -16 39 -31 l12 -25 13 25 c8 14 26 28 41 32 15
3 36 9 47 14 18 8 17 9 -5 7 -24 -2 -25 1 -28 53 -3 50 -22 90 -43 90 -4 0 -9
-24 -11 -52 -4 -63 -23 -63 -24 0 -1 52 -4 56 -32 36z"/>
<path d="M474 486 c1 -8 5 -18 8 -22 4 -3 5 1 4 10 -1 8 -5 18 -8 22 -4 3 -5
-1 -4 -10z"/>
<path d="M585 469 c-4 -6 -5 -12 -2 -15 2 -3 7 2 10 11 7 17 1 20 -8 4z"/>
<path d="M2991 468 c-1 -9 -16 -28 -33 -42 -18 -14 -28 -26 -22 -26 17 0 67
57 61 72 -4 9 -6 8 -6 -4z"/>
<path d="M739 433 c-13 -16 -12 -17 4 -4 16 13 21 21 13 21 -2 0 -10 -8 -17
-17z"/>
<path d="M400 426 c0 -2 8 -10 18 -17 15 -13 16 -12 3 4 -13 16 -21 21 -21 13z"/>
<path d="M1652 400 c0 -19 2 -27 5 -17 2 9 2 25 0 35 -3 9 -5 1 -5 -18z"/>
<path d="M659 353 c-13 -16 -12 -17 4 -4 16 13 21 21 13 21 -2 0 -10 -8 -17
-17z"/>
</g>
</svg>
