<?xml version="1.0" standalone="no"?>
<!DOCTYPE svg PUBLIC "-//W3C//DTD SVG 20010904//EN"
 "http://www.w3.org/TR/2001/REC-SVG-20010904/DTD/svg10.dtd">
<svg version="1.0" xmlns="http://www.w3.org/2000/svg"
 width="225.000000pt" height="225.000000pt" viewBox="0 0 225.000000 225.000000"
 preserveAspectRatio="xMidYMid meet">

<g transform="translate(0.000000,225.000000) scale(0.100000,-0.100000)"
fill="#000000" stroke="none">
<path d="M1094 1740 c-85 -35 -60 -164 31 -164 72 0 111 84 63 138 -26 29 -63
39 -94 26z"/>
<path d="M812 1546 c-47 -69 -21 -160 63 -217 41 -29 133 -59 176 -59 20 0 30
-10 50 -51 l25 -51 24 51 c19 41 28 51 49 51 43 0 134 30 176 59 85 58 111
151 61 220 -13 18 -27 28 -30 23 -3 -5 1 -15 9 -22 8 -6 19 -27 25 -46 16 -47
-1 -94 -49 -137 -36 -32 -126 -75 -136 -65 -3 2 -7 44 -11 94 -7 97 -19 126
-64 149 -39 20 -43 10 -35 -80 8 -83 -4 -117 -32 -93 -12 10 -14 28 -8 94 4
46 3 84 -2 87 -14 9 -72 -30 -83 -55 -5 -13 -12 -62 -15 -110 -4 -57 -11 -88
-18 -88 -29 0 -115 50 -144 83 -49 56 -52 119 -7 168 9 10 11 19 7 22 -5 3
-19 -9 -31 -27z"/>
<path d="M1130 925 l0 -145 30 0 30 0 0 60 0 60 55 0 55 0 0 -60 0 -60 30 0
30 0 0 145 0 145 -30 0 c-30 0 -30 -1 -30 -55 l0 -55 -55 0 -55 0 0 55 c0 54
0 55 -30 55 l-30 0 0 -145z"/>
<path d="M1430 925 l0 -145 30 0 c30 0 30 0 30 56 0 54 0 55 28 52 23 -3 29
-11 43 -53 14 -45 19 -50 47 -53 18 -2 32 -2 32 1 0 19 -33 107 -44 116 -12
10 -10 16 10 36 25 25 31 63 14 95 -13 25 -62 40 -131 40 l-59 0 0 -145z m134
73 c16 -26 -4 -52 -43 -56 -30 -3 -31 -2 -31 38 0 40 1 41 31 38 18 -2 37 -11
43 -20z"/>
<path d="M1690 1032 c0 -22 -3 -87 -7 -145 l-6 -107 25 0 c31 0 38 25 39 144
0 92 5 86 41 -49 21 -82 25 -90 48 -90 22 0 27 9 55 102 17 56 34 105 38 109
4 4 7 -43 7 -104 l0 -112 30 0 c35 0 35 0 23 183 l-6 107 -42 0 -42 0 -22 -77
c-41 -141 -36 -134 -50 -78 -7 28 -19 74 -27 103 l-15 52 -45 0 -44 0 0 -38z"/>
</g>
</svg>
